<svg xmlns="http://www.w3.org/2000/svg" viewBox="0 0 588.5 138.77"><defs><style>.cls-1{fill:#4a6dff;}</style></defs><g id="Layer_2" data-name="Layer 2"><g id="Layer_1-2" data-name="Layer 1"><path class="cls-1" d="M11.82,54.33v14a20.13,20.13,0,0,0,2.66,10.16,19.32,19.32,0,0,0,7.28,7.35,19.75,19.75,0,0,0,10.09,2.67H81.56a14.8,14.8,0,0,0,11-4.54,15.13,15.13,0,0,0,4.47-11V54.33H108.8V76.52A11.42,11.42,0,0,0,112.4,85a11.75,11.75,0,0,0,8.5,3.53h6.77a1.27,1.27,0,0,1,1.44,1.44v9.65a1.27,1.27,0,0,1-1.44,1.44H120.9a20,20,0,0,1-18.59-11.52,23.33,23.33,0,0,1-8.57,8.43A24.08,24.08,0,0,1,81.56,101H31.85a31,31,0,0,1-16-4.32,31.94,31.94,0,0,1-11.6-11.6A31.29,31.29,0,0,1,0,69V54.33ZM38.19,41.65H50.87V54.33H38.19Zm20.17,0H71V54.33H58.36Z"/><path class="cls-1" d="M127.67,88.48h31.42a13.87,13.87,0,0,0,10.08-4.11,13.66,13.66,0,0,0,4.18-10.16q0-7.92-7.64-12.53L131.42,39.05v-9.8L159.09,0l8.06,7.64L143.23,32.71,173.5,52.6a26.25,26.25,0,0,1,8.64,9.29,25.53,25.53,0,0,1,3.17,12.61,25.88,25.88,0,0,1-3.53,13.26,26.77,26.77,0,0,1-9.58,9.65,25.22,25.22,0,0,1-13.11,3.6H127.67a1.27,1.27,0,0,1-1.44-1.44V89.92A1.27,1.27,0,0,1,127.67,88.48Z"/><path class="cls-1" d="M192.66,119.6a21.7,21.7,0,0,0,7-8.14Q202,106.63,202,98.28V54.33h11.81v44q0,10.65-3.17,17.58a30.94,30.94,0,0,1-9.79,11.89q-6.63,5-19,11l-4.46-9.94A168.46,168.46,0,0,0,192.66,119.6Z"/><path class="cls-1" d="M243.24,97.77A24.25,24.25,0,0,1,234.52,89a23.66,23.66,0,0,1-3.24-12.17V6.05H243.1v70a12.07,12.07,0,0,0,3.53,8.79,11.55,11.55,0,0,0,8.57,3.6h6.48a1.28,1.28,0,0,1,1.45,1.44v9.65a1.28,1.28,0,0,1-1.45,1.44h-6.34A23.31,23.31,0,0,1,243.24,97.77Z"/><path class="cls-1" d="M323.07,49.57a27.14,27.14,0,0,1,10.23,9.8,26.19,26.19,0,0,1,3.75,13.83A27.95,27.95,0,0,1,309,101.3a26.24,26.24,0,0,1-21.18-10.37,21.91,21.91,0,0,1-7.57,7.35A20.37,20.37,0,0,1,269.75,101h-8.07a1.27,1.27,0,0,1-1.44-1.44V89.92a1.28,1.28,0,0,1,1.44-1.44h8.07A11.7,11.7,0,0,0,278.33,85a11.54,11.54,0,0,0,3.53-8.43V57.93h-8.5V46H309A28.6,28.6,0,0,1,323.07,49.57ZM320,84.23a15,15,0,0,0,4.54-11A14.57,14.57,0,0,0,320,62.4a15.11,15.11,0,0,0-11-4.47H293.53V73.2a15.14,15.14,0,0,0,4.47,11A14.78,14.78,0,0,0,309,88.77,15,15,0,0,0,320,84.23Z"/><path class="cls-1" d="M382.59,88.48a12.05,12.05,0,0,0,12.1-12.11v-67h11.82V77a23.33,23.33,0,0,1-3.25,12,24.23,24.23,0,0,1-8.71,8.79A23.37,23.37,0,0,1,382.44,101H348.72V88.48ZM350.31,14.7l11.38-3,16.57,67.59-11.38,3Z"/><path class="cls-1" d="M436.77,97.77A24.18,24.18,0,0,1,428.05,89a23.66,23.66,0,0,1-3.24-12.17V6.05h11.81v70a12.11,12.11,0,0,0,3.53,8.79,11.57,11.57,0,0,0,8.58,3.6h6.48a1.27,1.27,0,0,1,1.44,1.44v9.65a1.27,1.27,0,0,1-1.44,1.44h-6.34A23.31,23.31,0,0,1,436.77,97.77Z"/><path class="cls-1" d="M453.77,99.57V89.92a1.27,1.27,0,0,1,1.44-1.44h25.22a1.27,1.27,0,0,1,1.44,1.44v9.65a1.27,1.27,0,0,1-1.44,1.44H455.21A1.27,1.27,0,0,1,453.77,99.57Z"/><path class="cls-1" d="M479,99.57V89.92a1.27,1.27,0,0,1,1.44-1.44h25.22a1.28,1.28,0,0,1,1.44,1.44v9.65a1.27,1.27,0,0,1-1.44,1.44H480.43A1.27,1.27,0,0,1,479,99.57Z"/><path class="cls-1" d="M504.2,99.57V89.92a1.27,1.27,0,0,1,1.44-1.44h25.22a1.27,1.27,0,0,1,1.44,1.44v9.65a1.27,1.27,0,0,1-1.44,1.44H505.64A1.27,1.27,0,0,1,504.2,99.57Z"/><path class="cls-1" d="M530.86,88.48h31.41a13.87,13.87,0,0,0,10.09-4.11,13.66,13.66,0,0,0,4.18-10.16q0-7.92-7.64-12.53L534.61,39.05v-9.8L562.27,0l8.07,7.64L546.42,32.71,576.68,52.6a26.28,26.28,0,0,1,8.65,9.29A25.53,25.53,0,0,1,588.5,74.5,25.88,25.88,0,0,1,585,87.76a26.85,26.85,0,0,1-9.58,9.65,25.23,25.23,0,0,1-13.12,3.6H530.86a1.27,1.27,0,0,1-1.44-1.44V89.92A1.27,1.27,0,0,1,530.86,88.48Z"/></g></g></svg>