<svg xmlns="http://www.w3.org/2000/svg" viewBox="0 0 206 206"><defs><style>.cls-1{fill:#4a6dff;}</style></defs><g id="Layer_2" data-name="Layer 2"><g id="Layer_1-2" data-name="Layer 1"><path class="cls-1" d="M133.23,97.18c-1.36-7.27-2.27-12.09-3.41-15.68-1.09-3.39-2.13-4.86-3.28-5.81s-2.77-1.71-6.31-2.14c-3.73-.46-8.65-.48-16-.48h-3.28c-7.39,0-12.31,0-16,.48-3.54.43-5.17,1.19-6.31,2.14s-2.2,2.42-3.28,5.81a151.14,151.14,0,0,0-3.42,15.68c-1.91,10.18-3.19,17.1-3.42,22.31-.21,5,.63,7.16,1.81,8.58s3.12,2.65,8.1,3.36c5.16.73,12.2.75,22.56.75h3.28c10.36,0,17.4,0,22.56-.75,5-.71,6.92-1.93,8.1-3.36s2-3.56,1.8-8.58C136.43,114.28,135.14,107.36,133.23,97.18ZM118.67,85.47s0,.07,0,.11a17.06,17.06,0,0,1-32.16,0,3.4,3.4,0,0,1,2.08-4.35h0A3.41,3.41,0,0,1,92.9,83.3a10.23,10.23,0,0,0,19.3,0,3.41,3.41,0,1,1,6.47,2.17Z"/><path class="cls-1" d="M126,0H80A80,80,0,0,0,0,80v46a80,80,0,0,0,80,80h46a80,80,0,0,0,80-80V80A80,80,0,0,0,126,0ZM140.1,132.43C134.64,139,124.49,139,104.19,139h-3.28c-20.3,0-30.45,0-35.91-6.57s-3.58-16.55.16-36.51c2.66-14.19,4-21.28,9-25.47s12.27-4.2,26.71-4.2h3.28c14.44,0,21.66,0,26.71,4.2s6.38,11.28,9,25.47C143.68,115.88,145.56,125.86,140.1,132.43Z"/></g></g></svg>