<svg xmlns="http://www.w3.org/2000/svg" viewBox="0 0 556.05 136.92"><defs><style>.cls-1{fill:#fff;}.cls-2,.cls-3{fill:none;stroke:#4a6dff;stroke-miterlimit:5.33;stroke-width:5px;}.cls-2{stroke-linecap:round;}.cls-4{fill:#4a6dff;}</style></defs><g id="Layer_2" data-name="Layer 2"><g id="Layer_1-2" data-name="Layer 1"><path class="cls-1" d="M19.54,55.77V69.72a11.46,11.46,0,0,0,3.52,8.4,11.46,11.46,0,0,0,8.4,3.51H68.28a5.8,5.8,0,0,0,4.46-1.85,6.46,6.46,0,0,0,1.73-4.58V55.77H94V77.58a4.05,4.05,0,0,0,1.08,2.92A3.71,3.71,0,0,0,98,81.63h5a1.05,1.05,0,0,1,1.19,1.19v18.23a1.05,1.05,0,0,1-1.19,1.19H98a21.83,21.83,0,0,1-8.11-1.37,18.45,18.45,0,0,1-6.31-4.23,22.17,22.17,0,0,1-15.25,5.6H31.46A30.62,30.62,0,0,1,15.67,98,31.61,31.61,0,0,1,4.23,86.58,30.65,30.65,0,0,1,0,70.79v-15Zm7.63-16.92H44.09V55.77H27.17Zm23.11,0H67.2V55.77H50.28Z"/><path class="cls-1" d="M103,81.63H130a6.69,6.69,0,0,0,4.58-1.73,6.05,6.05,0,0,0,2-4.82c0-2.15-1.15-4-3.45-5.48L106.76,52.08V37.42l24-25.49,13.35,12.74L127.14,42.19l18,11.92a23.07,23.07,0,0,1,8,9,26.82,26.82,0,0,1,2.92,12.39A26.54,26.54,0,0,1,152.58,89,26.2,26.2,0,0,1,143,98.67a25.68,25.68,0,0,1-13.23,3.57H103a1.05,1.05,0,0,1-1.19-1.19V82.82A1.05,1.05,0,0,1,103,81.63Z"/><path class="cls-1" d="M153.49,112.55a14.27,14.27,0,0,0,4.47-6.31,35.85,35.85,0,0,0,1-9.83V55.77h19.42V96.41q0,10.36-2.44,17.1a29,29,0,0,1-8.7,12.09Q161,131,149,136.92l-7.38-16.33A84.25,84.25,0,0,0,153.49,112.55Z"/><path class="cls-1" d="M192.29,99.09a23.5,23.5,0,0,1-8.4-8.52,23,23,0,0,1-3.09-11.68V21.46h19.54V77.58a3.93,3.93,0,0,0,1.13,2.92,3.78,3.78,0,0,0,2.8,1.13h6.79a1.05,1.05,0,0,1,1.19,1.19v18.23a1.05,1.05,0,0,1-1.19,1.19h-7A22.57,22.57,0,0,1,192.29,99.09Z"/><path class="cls-1" d="M262.42,53.15a25.92,25.92,0,0,1,9.83,9.18,24.31,24.31,0,0,1,3.63,13.11A26.49,26.49,0,0,1,272.25,89a26.89,26.89,0,0,1-9.89,9.89,26.5,26.5,0,0,1-13.53,3.63,24.4,24.4,0,0,1-16.08-5.72q-4.89,5.49-13.47,5.48h-8.22a1.05,1.05,0,0,1-1.19-1.19V82.82a1.05,1.05,0,0,1,1.19-1.19h8.22a3.73,3.73,0,0,0,2.86-1.13,4,4,0,0,0,1.07-2.92V69.36h-7.5V49.82h33.12A28.27,28.27,0,0,1,262.42,53.15ZM253.48,80a6.34,6.34,0,0,0,1.79-4.58A5.75,5.75,0,0,0,253.48,71a6.55,6.55,0,0,0-4.65-1.67h-6.31v6.08A6.33,6.33,0,0,0,244.3,80a6,6,0,0,0,4.53,1.85A6.15,6.15,0,0,0,253.48,80Z"/><path class="cls-1" d="M275.94,26.82l18.83-5,12.51,51.72-18.83,5Zm34.32,54.81A3.6,3.6,0,0,0,313,80.5a3.93,3.93,0,0,0,1.07-2.8V21.93h19.54v57a22.92,22.92,0,0,1-3.1,11.68,23.34,23.34,0,0,1-8.4,8.52,22.51,22.51,0,0,1-11.73,3.15H276.06V81.63Z"/><path class="cls-1" d="M347.63,99.09a23.34,23.34,0,0,1-8.4-8.52,22.92,22.92,0,0,1-3.1-11.68V21.46h19.54V77.58a4,4,0,0,0,1.13,2.92,3.79,3.79,0,0,0,2.8,1.13h6.8a1.05,1.05,0,0,1,1.19,1.19v18.23a1.05,1.05,0,0,1-1.19,1.19h-7A22.55,22.55,0,0,1,347.63,99.09Z"/><path class="cls-1" d="M366.4,81.63h27A6.7,6.7,0,0,0,398,79.9a6.08,6.08,0,0,0,2-4.82c0-2.15-1.16-4-3.46-5.48L370.21,52.08V37.42l24-25.49L407.5,24.67,390.58,42.19l18,11.92a23.15,23.15,0,0,1,8,9,27,27,0,0,1,2.92,12.39A26.44,26.44,0,0,1,416,89a26.13,26.13,0,0,1-9.59,9.71,25.64,25.64,0,0,1-13.22,3.57H366.4a1.05,1.05,0,0,1-1.2-1.19V82.82A1.06,1.06,0,0,1,366.4,81.63Z"/><path class="cls-1" d="M437.05,0h78.32a40.68,40.68,0,0,1,40.68,40.68V88.32A40.68,40.68,0,0,1,515.37,129H437.05a10,10,0,0,1-10-10V10A10,10,0,0,1,437.05,0Z"/><path class="cls-2" d="M472,38l.78.26c3.89,1.3,5.83,1.95,6.94,3.49s1.12,3.6,1.12,7.69v7.71c0,8.34,0,12.51,2.59,15.09s6.75,2.59,15.08,2.59h23.57"/><path class="cls-3" d="M488.2,82.18a4.42,4.42,0,1,1-4.42,4.42A4.42,4.42,0,0,1,488.2,82.18Zm26.52,0a4.42,4.42,0,1,1-4.42,4.42A4.42,4.42,0,0,1,514.72,82.18Z"/><path class="cls-2" d="M498.51,55.66h-8.84"/><path class="cls-3" d="M480.84,46.82h33.73c6.06,0,9.08,0,10.39,2s.12,4.77-2.26,10.33l-1.27,3c-1.11,2.6-1.67,3.89-2.77,4.63s-2.52.73-5.35.73H480.84"/><rect class="cls-4" x="441.6" y="47.49" width="32" height="3" rx="1.5"/><rect class="cls-4" x="451.1" y="56.99" width="23" height="3" rx="1.5"/><rect class="cls-4" x="461.1" y="66.99" width="13" height="3" rx="1.5"/></g></g></svg>