<svg xmlns="http://www.w3.org/2000/svg" viewBox="0 0 129 129"><defs><style>.cls-1{fill:#4a6dff;}.cls-2,.cls-3{fill:none;stroke:#fff;stroke-miterlimit:5.33;stroke-width:5px;}.cls-2{stroke-linecap:round;}.cls-4{fill:#fff;}</style></defs><g id="Layer_2" data-name="Layer 2"><g id="Layer_1-2" data-name="Layer 1"><path class="cls-1" d="M10,0H88.32A40.68,40.68,0,0,1,129,40.68V88.32A40.68,40.68,0,0,1,88.32,129H10A10,10,0,0,1,0,119V10A10,10,0,0,1,10,0Z"/><path class="cls-2" d="M45,38l.78.26c3.88,1.3,5.83,1.95,6.94,3.49s1.11,3.6,1.11,7.69v7.71c0,8.34,0,12.51,2.59,15.09s6.76,2.59,15.09,2.59H95"/><path class="cls-3" d="M61.15,82.18a4.42,4.42,0,1,1-4.42,4.42A4.42,4.42,0,0,1,61.15,82.18Zm26.52,0a4.42,4.42,0,1,1-4.42,4.42A4.42,4.42,0,0,1,87.67,82.18Z"/><path class="cls-2" d="M71.46,55.66H62.62"/><path class="cls-3" d="M53.78,46.82H87.52c6,0,9.08,0,10.39,2s.12,4.77-2.27,10.33l-1.26,3c-1.11,2.6-1.67,3.89-2.78,4.63s-2.52.73-5.34.73H53.78"/><rect class="cls-4" x="14.55" y="47.49" width="32" height="3" rx="1.5"/><rect class="cls-4" x="24.05" y="56.99" width="23" height="3" rx="1.5"/><rect class="cls-4" x="34.05" y="66.99" width="13" height="3" rx="1.5"/></g></g></svg>