<svg xmlns="http://www.w3.org/2000/svg" viewBox="0 0 419.54 124.99"><defs><style>.cls-1{fill:#4a6dff;}</style></defs><g id="Layer_2" data-name="Layer 2"><g id="Layer_1-2" data-name="Layer 1"><path class="cls-1" d="M19.54,43.85V57.79a11.43,11.43,0,0,0,3.52,8.4,11.47,11.47,0,0,0,8.4,3.52H68.28a5.84,5.84,0,0,0,4.46-1.85,6.47,6.47,0,0,0,1.73-4.59V43.85H94v21.8a4,4,0,0,0,1.08,2.92A3.72,3.72,0,0,0,98,69.71h5a1.05,1.05,0,0,1,1.19,1.19V89.13A1.05,1.05,0,0,1,103,90.32H98A22,22,0,0,1,89.84,89a18.45,18.45,0,0,1-6.31-4.23,22.21,22.21,0,0,1-15.25,5.6H31.46a30.63,30.63,0,0,1-15.79-4.23A31.53,31.53,0,0,1,4.23,74.65,30.63,30.63,0,0,1,0,58.86v-15Zm7.63-16.92H44.09V43.85H27.17Zm23.11,0H67.2V43.85H50.28Z"/><path class="cls-1" d="M103,69.71H130A6.74,6.74,0,0,0,134.58,68a6.06,6.06,0,0,0,2-4.83q0-3.21-3.45-5.48L106.76,40.16V25.5l24-25.5,13.35,12.75L127.14,30.27l18,11.91a23.1,23.1,0,0,1,8,9.06,26.8,26.8,0,0,1,2.92,12.39A26.5,26.5,0,0,1,152.58,77,26.23,26.23,0,0,1,143,86.75a25.68,25.68,0,0,1-13.23,3.57H103a1.05,1.05,0,0,1-1.19-1.19V70.9A1.05,1.05,0,0,1,103,69.71Z"/><path class="cls-1" d="M153.49,100.63A14.3,14.3,0,0,0,158,94.31a35.8,35.8,0,0,0,1-9.83V43.85h19.42V84.48q0,10.36-2.44,17.1a28.9,28.9,0,0,1-8.7,12.09Q161,119,149,125l-7.38-16.32A86,86,0,0,0,153.49,100.63Z"/><path class="cls-1" d="M192.29,87.16a23.34,23.34,0,0,1-8.4-8.52A23,23,0,0,1,180.8,67V9.53h19.54V65.65a3.91,3.91,0,0,0,1.13,2.92,3.79,3.79,0,0,0,2.8,1.14h6.79a1.05,1.05,0,0,1,1.19,1.19V89.13a1.05,1.05,0,0,1-1.19,1.19h-7A22.49,22.49,0,0,1,192.29,87.16Z"/><path class="cls-1" d="M262.42,41.23a25.82,25.82,0,0,1,9.83,9.17,24.36,24.36,0,0,1,3.63,13.11A26.46,26.46,0,0,1,272.25,77a26.89,26.89,0,0,1-9.89,9.89,26.41,26.41,0,0,1-13.53,3.64,24.45,24.45,0,0,1-16.08-5.72q-4.89,5.47-13.47,5.48h-8.22a1.05,1.05,0,0,1-1.19-1.19V70.9a1.05,1.05,0,0,1,1.19-1.19h8.22a3.74,3.74,0,0,0,2.86-1.14,4,4,0,0,0,1.07-2.92V57.43h-7.5V37.89h33.12A28.17,28.17,0,0,1,262.42,41.23ZM253.48,68.1a6.35,6.35,0,0,0,1.79-4.59,5.75,5.75,0,0,0-1.79-4.41,6.55,6.55,0,0,0-4.65-1.67h-6.31v6.08a6.34,6.34,0,0,0,1.78,4.59,6,6,0,0,0,4.53,1.84A6.18,6.18,0,0,0,253.48,68.1Z"/><path class="cls-1" d="M275.94,14.89l18.83-5L307.28,61.6l-18.83,5Zm34.32,54.82A3.61,3.61,0,0,0,313,68.57a3.91,3.91,0,0,0,1.07-2.8V10h19.54V67a22.86,22.86,0,0,1-3.1,11.68,23.19,23.19,0,0,1-8.4,8.52,22.43,22.43,0,0,1-11.73,3.16H276.06V69.71Z"/><path class="cls-1" d="M347.63,87.16a23.19,23.19,0,0,1-8.4-8.52A22.86,22.86,0,0,1,336.13,67V9.53h19.54V65.65a4,4,0,0,0,1.13,2.92,3.8,3.8,0,0,0,2.8,1.14h6.8a1.05,1.05,0,0,1,1.19,1.19V89.13a1.05,1.05,0,0,1-1.19,1.19h-7A22.46,22.46,0,0,1,347.63,87.16Z"/><path class="cls-1" d="M366.4,69.71h27A6.74,6.74,0,0,0,398,68a6.09,6.09,0,0,0,2-4.83c0-2.14-1.16-4-3.46-5.48L370.21,40.16V25.5l24-25.5L407.5,12.75,390.58,30.27l18,11.91a23.17,23.17,0,0,1,8,9.06,26.92,26.92,0,0,1,2.92,12.39,26.66,26.66,0,0,1-13.11,23.12,25.64,25.64,0,0,1-13.22,3.57H366.4a1.06,1.06,0,0,1-1.2-1.19V70.9A1.05,1.05,0,0,1,366.4,69.71Z"/></g></g></svg>