<svg xmlns="http://www.w3.org/2000/svg" viewBox="0 0 826.26 206"><defs><style>.cls-1{fill:#4a6dff;}.cls-2{fill:#6a6c7c;}</style></defs><g id="Layer_2" data-name="Layer 2"><g id="Layer_1-2" data-name="Layer 1"><path class="cls-1" d="M11.82,62.84v14A20.16,20.16,0,0,0,14.48,87a19.46,19.46,0,0,0,7.28,7.35A19.75,19.75,0,0,0,31.85,97H81.56a14.8,14.8,0,0,0,11-4.54,15.14,15.14,0,0,0,4.47-11V62.84H108.8V85a11.42,11.42,0,0,0,3.6,8.43A11.75,11.75,0,0,0,120.9,97h6.77a1.27,1.27,0,0,1,1.44,1.44v9.65a1.27,1.27,0,0,1-1.44,1.44H120.9A20,20,0,0,1,102.31,98a23.18,23.18,0,0,1-8.57,8.43,24,24,0,0,1-12.18,3.1H31.85a31,31,0,0,1-16-4.32,31.94,31.94,0,0,1-11.6-11.6A31.32,31.32,0,0,1,0,77.54V62.84ZM38.19,50.16H50.87V62.84H38.19Zm20.17,0H71V62.84H58.36Z"/><path class="cls-1" d="M127.67,97h31.42a13.87,13.87,0,0,0,10.08-4.11,13.66,13.66,0,0,0,4.18-10.16q0-7.92-7.64-12.54L131.42,47.57v-9.8L159.09,8.52l8.06,7.64L143.23,41.23,173.5,61.12a26.25,26.25,0,0,1,8.64,9.29A25.53,25.53,0,0,1,185.31,83a25.91,25.91,0,0,1-3.53,13.26,26.77,26.77,0,0,1-9.58,9.65,25.22,25.22,0,0,1-13.11,3.6H127.67a1.27,1.27,0,0,1-1.44-1.44V98.44A1.27,1.27,0,0,1,127.67,97Z"/><path class="cls-1" d="M192.66,128.12a21.7,21.7,0,0,0,7-8.14q2.39-4.83,2.38-13.19V62.84h11.81v44q0,10.67-3.17,17.59a30.83,30.83,0,0,1-9.79,11.88q-6.63,5-19,11l-4.46-9.95A168.93,168.93,0,0,0,192.66,128.12Z"/><path class="cls-1" d="M243.24,106.29a24.25,24.25,0,0,1-8.72-8.79,23.72,23.72,0,0,1-3.24-12.18V14.57H243.1v70a12.05,12.05,0,0,0,3.53,8.79A11.52,11.52,0,0,0,255.2,97h6.48a1.28,1.28,0,0,1,1.45,1.44v9.65a1.28,1.28,0,0,1-1.45,1.44h-6.34A23.31,23.31,0,0,1,243.24,106.29Z"/><path class="cls-1" d="M323.07,58.09a27.14,27.14,0,0,1,10.23,9.8,26.19,26.19,0,0,1,3.75,13.83,27.95,27.95,0,0,1-28.1,28.1,26.24,26.24,0,0,1-21.18-10.37,21.8,21.8,0,0,1-7.57,7.34,20.28,20.28,0,0,1-10.45,2.74h-8.07a1.28,1.28,0,0,1-1.44-1.44V98.44A1.28,1.28,0,0,1,261.68,97h8.07a11.7,11.7,0,0,0,8.58-3.53A11.54,11.54,0,0,0,281.86,85V66.45h-8.5v-12H309A28.6,28.6,0,0,1,323.07,58.09ZM320,92.75a15,15,0,0,0,4.54-11A14.61,14.61,0,0,0,320,70.91a15.14,15.14,0,0,0-11-4.46H293.53V81.72a15.15,15.15,0,0,0,4.47,11A14.78,14.78,0,0,0,309,97.28,15,15,0,0,0,320,92.75Z"/><path class="cls-1" d="M382.59,97a12.05,12.05,0,0,0,12.1-12.11v-67h11.82V85.47a23.36,23.36,0,0,1-3.25,12,24.23,24.23,0,0,1-8.71,8.79,23.37,23.37,0,0,1-12.11,3.24H348.72V97ZM350.31,23.22l11.38-3,16.57,67.58-11.38,3Z"/><path class="cls-1" d="M436.77,106.29a24.18,24.18,0,0,1-8.72-8.79,23.72,23.72,0,0,1-3.24-12.18V14.57h11.81v70a12.09,12.09,0,0,0,3.53,8.79A11.54,11.54,0,0,0,448.73,97h6.48a1.27,1.27,0,0,1,1.44,1.44v9.65a1.27,1.27,0,0,1-1.44,1.44h-6.34A23.31,23.31,0,0,1,436.77,106.29Z"/><path class="cls-1" d="M453.77,108.09V98.44A1.27,1.27,0,0,1,455.21,97h25.22a1.27,1.27,0,0,1,1.44,1.44v9.65a1.27,1.27,0,0,1-1.44,1.44H455.21A1.27,1.27,0,0,1,453.77,108.09Z"/><path class="cls-1" d="M479,108.09V98.44A1.27,1.27,0,0,1,480.43,97h25.22a1.28,1.28,0,0,1,1.44,1.44v9.65a1.28,1.28,0,0,1-1.44,1.44H480.43A1.27,1.27,0,0,1,479,108.09Z"/><path class="cls-1" d="M504.2,108.09V98.44A1.27,1.27,0,0,1,505.64,97h25.22a1.27,1.27,0,0,1,1.44,1.44v9.65a1.27,1.27,0,0,1-1.44,1.44H505.64A1.27,1.27,0,0,1,504.2,108.09Z"/><path class="cls-1" d="M530.86,97h31.41a13.87,13.87,0,0,0,10.09-4.11,13.66,13.66,0,0,0,4.18-10.16q0-7.92-7.64-12.54L534.61,47.57v-9.8L562.27,8.52l8.07,7.64L546.42,41.23l30.26,19.89a26.28,26.28,0,0,1,8.65,9.29A25.53,25.53,0,0,1,588.5,83,25.91,25.91,0,0,1,585,96.28a26.85,26.85,0,0,1-9.58,9.65,25.23,25.23,0,0,1-13.12,3.6H530.86a1.27,1.27,0,0,1-1.44-1.44V98.44A1.27,1.27,0,0,1,530.86,97Z"/><path class="cls-2" d="M10.18,201.64A8.73,8.73,0,0,1,5.85,194V185.8H8.42v8.12A6.06,6.06,0,0,0,9.25,197a6.22,6.22,0,0,0,2.24,2.23,6,6,0,0,0,3.1.83h8.83a3.88,3.88,0,0,0,2.88-1.16,4,4,0,0,0,.29-5.28,4.12,4.12,0,0,0-2.26-1.47l-9.4-2.11v-4a6.85,6.85,0,0,1,1-3.58,7.35,7.35,0,0,1,6.32-3.59h6.05v2.53H22.13a4.68,4.68,0,0,0-4.64,4.64V188l7.71,1.74a6.81,6.81,0,0,1,4.93,6.47,6.64,6.64,0,0,1-6.67,6.62H14.59A8.52,8.52,0,0,1,10.18,201.64Z"/><path class="cls-2" d="M45.66,191.18v1.91a.36.36,0,0,1-.41.41h-2a5.44,5.44,0,0,1-4-1.57V193a18.28,18.28,0,0,1-.49,4.7A8,8,0,0,1,37,201a18.81,18.81,0,0,1-3.91,3.11l-1.41-1.95A16.16,16.16,0,0,0,35,199.47a6.06,6.06,0,0,0,1.38-2.59,17.28,17.28,0,0,0,.34-3.83v-12.3h2.56v6.08a3.78,3.78,0,0,0,1.18,2.78,3.94,3.94,0,0,0,2.84,1.16h2A.36.36,0,0,1,45.66,191.18Z"/><path class="cls-2" d="M44.84,193.09v-1.91a.36.36,0,0,1,.41-.41h2.57a3.86,3.86,0,0,0,2.86-1.18,4,4,0,0,0,1.16-2.88v-7.29H54.4v7.41a6.67,6.67,0,0,1-3.29,5.78,6.39,6.39,0,0,1-3.33.89H45.25A.36.36,0,0,1,44.84,193.09Zm1.07-20.8H49v3.11H45.91Zm5.26,0h3.11v3.11H51.17Z"/><path class="cls-2" d="M77.89,191.18v1.91a.36.36,0,0,1-.41.41H74.87A8.23,8.23,0,0,1,73.4,198a10.73,10.73,0,0,1-3.4,2.94q-2.09,1.19-6.44,3.13l-.83-2.28q4.07-1.78,6-2.8a7.74,7.74,0,0,0,2.77-2.28,5.46,5.46,0,0,0,.89-3.21h-5a7.84,7.84,0,0,1-3.89-1,7.45,7.45,0,0,1-3.86-6.59,7.54,7.54,0,0,1,1-3.85,7.7,7.7,0,0,1,6.71-3.85,7.28,7.28,0,0,1,3.83,1,7.78,7.78,0,0,1,3.75,6.67v4.85h2.57A.37.37,0,0,1,77.89,191.18Zm-5.55-5.3a5,5,0,1,0-5,5h5Z"/><path class="cls-2" d="M77.48,190.77h2.28a3.93,3.93,0,0,0,2.81-1.16,3.73,3.73,0,0,0,1.2-2.78v-6.08h2.57v6.08a3.8,3.8,0,0,0,1.16,2.78,3.87,3.87,0,0,0,2.82,1.16H92.6a.37.37,0,0,1,.41.41v1.91a.36.36,0,0,1-.41.41H90.32a5.63,5.63,0,0,1-3.13-.89A6.15,6.15,0,0,1,85,190.23a5.89,5.89,0,0,1-2.12,2.38,5.57,5.57,0,0,1-3.14.89H77.48c-.28,0-.42-.13-.42-.41v-1.91A.37.37,0,0,1,77.48,190.77Zm3.31,6.79H83.9v3.11H80.79Zm5.26,0h3.11v3.11H86.05Z"/><path class="cls-2" d="M92.6,190.77h2.82a3.87,3.87,0,0,0,2.79-1.16,3.74,3.74,0,0,0,1.18-2.78v-6.08H102v6.08a3.74,3.74,0,0,0,1.18,2.78,3.92,3.92,0,0,0,2.84,1.16h2.77a.37.37,0,0,1,.42.41v1.91c0,.28-.14.41-.42.41H106a5.67,5.67,0,0,1-3.17-.89,5.77,5.77,0,0,1-2.13-2.38,5.86,5.86,0,0,1-2.14,2.38,5.58,5.58,0,0,1-3.12.89H92.6c-.28,0-.42-.13-.42-.41v-1.91A.37.37,0,0,1,92.6,190.77Zm3.81,6.75h3.11v3.11H96.41ZM99,202.87h3.11v3.06H99Zm2.69-5.35h3.07v3.11h-3.07Z"/><path class="cls-2" d="M126.36,179.29a7.52,7.52,0,0,1,2.82,2.72,7.26,7.26,0,0,1,1,3.83,7.72,7.72,0,0,1-7.74,7.75,7.36,7.36,0,0,1-3.55-.89,7.6,7.6,0,0,1-2.67-2.43,6,6,0,0,1-2.17,2.36,5.79,5.79,0,0,1-3.13.87h-2.2a.36.36,0,0,1-.41-.41v-1.91a.37.37,0,0,1,.41-.41H111a3.88,3.88,0,0,0,2.8-1.16,3.78,3.78,0,0,0,1.18-2.78v-6h-2.41V178.3h10A7.9,7.9,0,0,1,126.36,179.29ZM126,189.38a4.83,4.83,0,0,0,1.47-3.54,4.77,4.77,0,0,0-1.47-3.52,4.85,4.85,0,0,0-3.54-1.45h-5v5a4.89,4.89,0,0,0,1.45,3.54,4.77,4.77,0,0,0,3.53,1.47A4.83,4.83,0,0,0,126,189.38Z"/><path class="cls-2" d="M139,192.61a6.65,6.65,0,0,1-3.3-5.78V166.37h2.57v20.34a4,4,0,0,0,1.16,2.88,3.84,3.84,0,0,0,2.86,1.18H144a.37.37,0,0,1,.41.41v1.91a.36.36,0,0,1-.41.41h-1.66A6.34,6.34,0,0,1,139,192.61Z"/><path class="cls-2" d="M144,190.77H153a4.51,4.51,0,0,0,4.52-4.56,4.43,4.43,0,0,0-2.4-4L145,175.61v-2.28l7.87-8.29,1.78,1.62-7.16,7.54,9.32,6.09a7.17,7.17,0,0,1,2.4,2.53,6.92,6.92,0,0,1,.87,3.48,7.15,7.15,0,0,1-1,3.6,7.26,7.26,0,0,1-2.59,2.63,6.88,6.88,0,0,1-3.59,1H144c-.28,0-.42-.13-.42-.41v-1.91A.37.37,0,0,1,144,190.77Z"/><path class="cls-2" d="M178.91,192.32a8.73,8.73,0,0,1-4.33-7.6v-4h2.57v3.85a5.9,5.9,0,0,0,.83,3.1,6.14,6.14,0,0,0,2.23,2.24,6.06,6.06,0,0,0,3.11.83H198a4.75,4.75,0,0,0,3.52-1.47,4.86,4.86,0,0,0,1.46-3.54v-5h2.56v5a7.87,7.87,0,0,1-1,3.89,7.49,7.49,0,0,1-2.71,2.82,7.32,7.32,0,0,1-3.84,1H183.32A8.52,8.52,0,0,1,178.91,192.32Zm7-14.68H189v3.11h-3.11Zm5.26,0h3.11v3.11h-3.11Z"/><path class="cls-2" d="M211,166.37h2.57V193.5H211Z"/><path class="cls-2" d="M229.18,191.18v1.91c0,.28-.14.41-.42.41h-1.94a5.44,5.44,0,0,1-4-1.57V193a11.27,11.27,0,0,1-.91,4.86,8.48,8.48,0,0,1-2.74,3.21,35.1,35.1,0,0,1-5.26,3l-1-2.2c2.07-1.1,3.56-2,4.47-2.59a6.37,6.37,0,0,0,2.11-2.36,8.37,8.37,0,0,0,.75-3.87v-12.3h2.57v6.08a3.74,3.74,0,0,0,1.18,2.78,3.92,3.92,0,0,0,2.84,1.16h1.94A.37.37,0,0,1,229.18,191.18Zm-6.13-17.56v3.11h-3.11v-3.11Z"/><path class="cls-2" d="M228.76,190.77H231a3.94,3.94,0,0,0,2.82-1.16,3.73,3.73,0,0,0,1.2-2.78v-6.08h2.57v6.08a3.76,3.76,0,0,0,1.16,2.78,3.83,3.83,0,0,0,2.81,1.16h2.28a.37.37,0,0,1,.42.41v1.91c0,.28-.14.41-.42.41H241.6a5.58,5.58,0,0,1-3.12-.89,6.18,6.18,0,0,1-2.18-2.38,5.93,5.93,0,0,1-2.11,2.38,5.58,5.58,0,0,1-3.15.89h-2.28a.36.36,0,0,1-.41-.41v-1.91A.37.37,0,0,1,228.76,190.77Zm3.32,6.79h3.1v3.11h-3.1Zm5.26,0h3.1v3.11h-3.1Z"/><path class="cls-2" d="M267.33,191.18v1.91c0,.28-.14.41-.42.41h-1.82a4.69,4.69,0,0,0-3.48,1.45,4.93,4.93,0,0,0-1.41,3.57v1.86h3.23V203h-9.77a6.84,6.84,0,0,1-5.93-3.38,6.67,6.67,0,0,1-.91-3.41V193.5h-2.94a.36.36,0,0,1-.41-.41v-1.91a.37.37,0,0,1,.41-.41h2.94v-4.93a7.75,7.75,0,0,1,1-3.89,7.42,7.42,0,0,1,2.71-2.82,7.29,7.29,0,0,1,3.83-1,7.64,7.64,0,0,1,3.9,1,7.81,7.81,0,0,1,2.83,2.82,7.41,7.41,0,0,1,1.06,3.89,7.22,7.22,0,0,1-1.06,3.85,7.94,7.94,0,0,1-2.83,2.78,7.63,7.63,0,0,1-3.9,1h-5v2.66a4.23,4.23,0,0,0,4.23,4.22h4.18v-1.86a8,8,0,0,1,1-3.9,7.38,7.38,0,0,1,2.68-2.81,7.08,7.08,0,0,1,3.77-1h1.69A.37.37,0,0,1,267.33,191.18Zm-18-.41h5a5,5,0,0,0,3.59-1.43,4.69,4.69,0,0,0,1.47-3.5,4.81,4.81,0,0,0-1.49-3.54,4.93,4.93,0,0,0-3.57-1.47,5,5,0,0,0-5,5Z"/><path class="cls-2" d="M266.5,193.09v-1.91a.37.37,0,0,1,.41-.41h7.25a10.53,10.53,0,0,0,3.61-.62,8.74,8.74,0,0,0,2.94-1.78l5.59-5.14-7.79-3.69a5.33,5.33,0,0,0-1.9-.49,3.65,3.65,0,0,0-1.58.37,4.47,4.47,0,0,0-1.32,1L271,183.52,269.15,182l2.74-3.32a6.39,6.39,0,0,1,2.09-1.57,6.07,6.07,0,0,1,2.67-.58,4.83,4.83,0,0,1,1.41.18,8.22,8.22,0,0,1,1,.38,4.49,4.49,0,0,0,.52.22l9,4.23a1.74,1.74,0,0,0,.79.17h3.1v2.52h-3.68l-2.16,2v.66a3.78,3.78,0,0,0,1.18,2.78,3.94,3.94,0,0,0,2.84,1.16h3.94a.37.37,0,0,1,.41.41v1.91a.36.36,0,0,1-.41.41h-3.94a5.8,5.8,0,0,1-4-1.53,6.27,6.27,0,0,1-2-3.89l-2.44,2.28a12.39,12.39,0,0,1-3.83,2.32,12.91,12.91,0,0,1-4.62.82h-6.8A.36.36,0,0,1,266.5,193.09Zm9.24,4.35h3.11v3.11h-3.11Z"/><path class="cls-2" d="M294.17,193.09v-1.91a.37.37,0,0,1,.42-.41h2.57a3.82,3.82,0,0,0,2.85-1.18,3.94,3.94,0,0,0,1.16-2.88v-7.29h2.57v7.41a6.67,6.67,0,0,1-3.29,5.78,6.4,6.4,0,0,1-3.34.89h-2.52C294.31,193.5,294.17,193.37,294.17,193.09Zm1.08-20.8h3.11v3.11h-3.11Zm5.26,0h3.11v3.11h-3.11Z"/><path class="cls-2" d="M322.57,201.64a8.59,8.59,0,0,1-3.17-3.19,8.7,8.7,0,0,1-1.16-4.41V185.8h2.57v8.12a6,6,0,0,0,.83,3.11,6.22,6.22,0,0,0,2.24,2.23,6,6,0,0,0,3.1.83h8.83a3.86,3.86,0,0,0,2.87-1.16,3.92,3.92,0,0,0,1.14-2.86,3.84,3.84,0,0,0-.85-2.42,4.06,4.06,0,0,0-2.25-1.47l-9.41-2.11v-4a6.86,6.86,0,0,1,1-3.58,7.35,7.35,0,0,1,6.31-3.59h6v2.53h-6.13a4.68,4.68,0,0,0-4.64,4.64V188l7.71,1.74a6.81,6.81,0,0,1,4.93,6.47,6.52,6.52,0,0,1-.89,3.31,6.64,6.64,0,0,1-2.43,2.42,6.49,6.49,0,0,1-3.35.89H327A8.52,8.52,0,0,1,322.57,201.64Z"/><path class="cls-2" d="M348.23,166.37h2.57V193.5h-2.57Z"/><path class="cls-2" d="M387.17,191.18v1.91a.36.36,0,0,1-.41.41h-1.95a5.87,5.87,0,0,1-3.5-1.07,6,6,0,0,1-2.17-2.9,7.67,7.67,0,0,1-2.55,2,7.46,7.46,0,0,1-3.3.74,7.62,7.62,0,0,1-3.89-1,7.83,7.83,0,0,1-2.84-2.82,7.54,7.54,0,0,1-1.05-3.89,7.12,7.12,0,0,1,1.05-3.79,7.84,7.84,0,0,1,6.73-3.75h5v-2.24h2.52v12.05a3.75,3.75,0,0,0,1.19,2.78,3.84,3.84,0,0,0,2.79,1.16h1.95A.37.37,0,0,1,387.17,191.18Zm-8.86-11.6h-5a4.73,4.73,0,0,0-2.5.69,5.12,5.12,0,0,0-1.82,1.82,4.68,4.68,0,0,0-.69,2.47,4.88,4.88,0,0,0,1.47,3.58,5,5,0,0,0,7.09,0,4.88,4.88,0,0,0,1.47-3.58Z"/><path class="cls-2" d="M386.34,193.09v-1.91a.37.37,0,0,1,.42-.41h9.77a3.9,3.9,0,0,0,2.84-1.16,3.78,3.78,0,0,0,1.18-2.82v-1h-4.26a7,7,0,0,1-3.52-.91,6.9,6.9,0,0,1-2.57-2.49,6.56,6.56,0,0,1-1-3.48,6.77,6.77,0,0,1,1-3.52,7.11,7.11,0,0,1,2.57-2.57,6.83,6.83,0,0,1,3.52-1,6.54,6.54,0,0,1,3.46,1,7.12,7.12,0,0,1,3.37,6.09v8a6.67,6.67,0,0,1-3.29,5.73,6.4,6.4,0,0,1-3.34.89h-9.73C386.48,193.5,386.34,193.37,386.34,193.09Zm14.34-14.21a4.33,4.33,0,0,0-1.29-3.19,4.55,4.55,0,0,0-6.33,0,4.59,4.59,0,0,0,0,6.38,4.28,4.28,0,0,0,3.18,1.28h4.44Zm-5.93-14h3.11v3.1h-3.11Z"/><path class="cls-2" d="M417.29,191.18v1.91a.36.36,0,0,1-.41.41h-1.95a5.44,5.44,0,0,1-4-1.57V193a11.12,11.12,0,0,1-.91,4.86,8.48,8.48,0,0,1-2.74,3.21,34.59,34.59,0,0,1-5.26,3l-1-2.2c2.07-1.1,3.56-2,4.47-2.59a6.48,6.48,0,0,0,2.12-2.36,8.51,8.51,0,0,0,.74-3.87v-12.3h2.57v6.08a3.74,3.74,0,0,0,1.18,2.78,3.92,3.92,0,0,0,2.84,1.16h1.95A.37.37,0,0,1,417.29,191.18Z"/><path class="cls-2" d="M416.46,193.09v-1.91a.37.37,0,0,1,.41-.41h7.25a10.53,10.53,0,0,0,3.61-.62,8.74,8.74,0,0,0,2.94-1.78l5.59-5.14-7.79-3.69a5.33,5.33,0,0,0-1.9-.49,3.65,3.65,0,0,0-1.58.37,4.47,4.47,0,0,0-1.32,1l-2.74,3.15L419.11,182l2.74-3.32a6.39,6.39,0,0,1,2.09-1.57,6.07,6.07,0,0,1,2.67-.58,4.83,4.83,0,0,1,1.41.18,8.22,8.22,0,0,1,1,.38,4.49,4.49,0,0,0,.52.22l9,4.23a1.74,1.74,0,0,0,.79.17h3.1v2.52h-3.6l-6.71,6.18a12.39,12.39,0,0,1-3.83,2.32,12.91,12.91,0,0,1-4.62.82h-6.8A.36.36,0,0,1,416.46,193.09Z"/><path class="cls-2" d="M457.45,188.86a7.41,7.41,0,0,1-.56-2.81,7.79,7.79,0,0,1,.6-3,7.91,7.91,0,0,1,1.72-2.56l3.56-3.53-1.69-1.69,1.82-1.83,7,7.05a7.84,7.84,0,0,1,2.32,5.55,7.41,7.41,0,0,1-.56,2.81,7.83,7.83,0,0,1-4.14,4.15,7.87,7.87,0,0,1-5.93,0,7.71,7.71,0,0,1-2.54-1.7A7.28,7.28,0,0,1,457.45,188.86Zm7.15,2a4.86,4.86,0,0,0,1.86-.37,5,5,0,0,0,1.66-1.12,4.73,4.73,0,0,0,1.45-3.52,5.09,5.09,0,0,0-.38-1.92,4.62,4.62,0,0,0-1.07-1.64l-3.56-3.52L461,182.32a4.93,4.93,0,0,0-1.07,1.61A5.06,5.06,0,0,0,461,189.4,4.87,4.87,0,0,0,464.6,190.89Z"/><path class="cls-2" d="M481,192.61a6.67,6.67,0,0,1-3.29-5.78V166.37h2.57v20.34a3.94,3.94,0,0,0,1.16,2.88,3.82,3.82,0,0,0,2.85,1.18H486a.37.37,0,0,1,.42.41v1.91c0,.28-.14.41-.42.41h-1.65A6.4,6.4,0,0,1,481,192.61Z"/><path class="cls-2" d="M512.77,191.18v1.91a.36.36,0,0,1-.41.41h-1.95a5.86,5.86,0,0,1-3.1-.82,5.75,5.75,0,0,1-2.12-2.28,7.34,7.34,0,0,1-2.54,2.25,6.83,6.83,0,0,1-3.34.85H486a.36.36,0,0,1-.41-.41v-1.91a.37.37,0,0,1,.41-.41h13.3a4.51,4.51,0,0,0,4.52-4.56,4.44,4.44,0,0,0-2.41-4l-10.06-6.58v-2.28l7.87-8.29,1.74,1.62-7.13,7.54,9.32,6.09a7.11,7.11,0,0,1,2.41,2.53,6.92,6.92,0,0,1,.87,3.48v.53a3.74,3.74,0,0,0,1.18,2.78,3.85,3.85,0,0,0,2.79,1.16h1.95A.36.36,0,0,1,512.77,191.18Zm-15.86-26.72-7.29,7.71-1.29-1.37,7.29-7.7Z"/><path class="cls-2" d="M541,179.42V193.5h-5.56a5.87,5.87,0,0,1-5.3-3.1,5.87,5.87,0,0,1-2.13,2.32,5.79,5.79,0,0,1-3.13.87,5.85,5.85,0,0,1-3.17-.87,6.1,6.1,0,0,1-2.17-2.36,6.1,6.1,0,0,1-2.16,2.29,5.71,5.71,0,0,1-3.1.85h-1.95c-.28,0-.42-.13-.42-.41v-1.91a.37.37,0,0,1,.42-.41h1.95a3.9,3.9,0,0,0,2.83-1.16,3.74,3.74,0,0,0,1.18-2.78v-6.08h2.57v6.17a3.77,3.77,0,0,0,1.18,2.77,3.9,3.9,0,0,0,2.84,1.16,3.84,3.84,0,0,0,2.8-1.16,3.77,3.77,0,0,0,1.18-2.77v-6.17h2.57v6.08a3.74,3.74,0,0,0,1.18,2.78,3.9,3.9,0,0,0,2.83,1.16h3V179.42Zm-11.93-5.3v3.1H526v-3.1Zm2.6-5.35v3.11h-3.06v-3.11Zm-.45,8.45v-3.1h3.11v3.1Z"/><path class="cls-2" d="M555.3,199a7.74,7.74,0,0,0,2.77-2.28,5.39,5.39,0,0,0,.89-3.21h-5a7.84,7.84,0,0,1-3.89-1,7.45,7.45,0,0,1-3.86-6.59,7.54,7.54,0,0,1,1-3.85,7.7,7.7,0,0,1,6.71-3.85,7.26,7.26,0,0,1,3.83,1,7.78,7.78,0,0,1,3.75,6.67v6.71a9,9,0,0,1-1.26,5,10.08,10.08,0,0,1-3.4,3.14q-2.13,1.25-6.69,3.28l-.83-2.28Q553.42,200,555.3,199ZM559,185.88a5,5,0,1,0-5,5h5Z"/><path class="cls-2" d="M577.23,191.18v1.91a.36.36,0,0,1-.41.41h-2a5.44,5.44,0,0,1-4-1.57V193a17.79,17.79,0,0,1-.5,4.7,8,8,0,0,1-1.8,3.25,19.09,19.09,0,0,1-3.91,3.11l-1.41-1.95a15.78,15.78,0,0,0,3.33-2.65,6,6,0,0,0,1.39-2.59,17.38,17.38,0,0,0,.33-3.83v-12.3h2.57v6.08a3.78,3.78,0,0,0,1.18,2.78,3.94,3.94,0,0,0,2.84,1.16h2A.37.37,0,0,1,577.23,191.18Z"/><path class="cls-2" d="M576.4,193.09v-1.91a.37.37,0,0,1,.42-.41h9.77a3.92,3.92,0,0,0,2.84-1.16,3.78,3.78,0,0,0,1.18-2.82v-1h-4.26a7,7,0,0,1-3.53-.91,7,7,0,0,1-2.56-2.49,6.56,6.56,0,0,1-1-3.48,6.77,6.77,0,0,1,1-3.52,7.17,7.17,0,0,1,2.56-2.57,6.87,6.87,0,0,1,3.53-1,6.51,6.51,0,0,1,3.45,1,7.1,7.1,0,0,1,3.38,6.09v8a6.52,6.52,0,0,1-.89,3.31,6.71,6.71,0,0,1-2.4,2.42,6.4,6.4,0,0,1-3.34.89h-9.73C576.54,193.5,576.4,193.37,576.4,193.09Zm14.34-14.21a4.33,4.33,0,0,0-1.29-3.19,4.25,4.25,0,0,0-3.15-1.28,4.47,4.47,0,1,0,0,8.94h4.44Zm-5.93-14h3.11v3.1h-3.11Z"/><path class="cls-1" d="M753.49,97.18c-1.36-7.27-2.27-12.09-3.41-15.68-1.09-3.39-2.13-4.86-3.28-5.81S744,74,740.49,73.55c-3.73-.46-8.65-.48-16-.48h-3.28c-7.39,0-12.31,0-16,.48-3.54.43-5.17,1.19-6.31,2.14s-2.19,2.42-3.28,5.81a151.14,151.14,0,0,0-3.42,15.68c-1.91,10.18-3.19,17.1-3.42,22.31-.21,5,.63,7.16,1.81,8.58s3.12,2.65,8.1,3.36c5.16.73,12.2.75,22.56.75h3.28c10.36,0,17.4,0,22.56-.75,5-.71,6.92-1.93,8.1-3.36s2-3.56,1.8-8.58C756.69,114.28,755.4,107.36,753.49,97.18ZM738.93,85.47s0,.07,0,.11a17.06,17.06,0,0,1-32.16,0,3.41,3.41,0,0,1,2.08-4.35h0a3.41,3.41,0,0,1,4.35,2.07,10.23,10.23,0,0,0,19.3,0,3.41,3.41,0,1,1,6.47,2.17Z"/><path class="cls-1" d="M746.28,0h-46a80,80,0,0,0-80,80v46a80,80,0,0,0,80,80h46a80,80,0,0,0,80-80V80A80,80,0,0,0,746.28,0Zm14.08,132.43C754.9,139,744.75,139,724.45,139h-3.28c-20.3,0-30.45,0-35.91-6.57s-3.58-16.55.16-36.51c2.66-14.19,4-21.28,9-25.47s12.27-4.2,26.71-4.2h3.28c14.44,0,21.66,0,26.71,4.2s6.38,11.28,9,25.47C763.94,115.88,765.82,125.86,760.36,132.43Z"/></g></g></svg>