<svg xmlns="http://www.w3.org/2000/svg" viewBox="0 0 593.18 197.41"><defs><style>.cls-1{fill:#4a6dff;}.cls-2{fill:#6a6c7c;}</style></defs><g id="Layer_2" data-name="Layer 2"><g id="Layer_1-2" data-name="Layer 1"><path class="cls-1" d="M11.82,54.33v14a20.13,20.13,0,0,0,2.66,10.16,19.32,19.32,0,0,0,7.28,7.35,19.75,19.75,0,0,0,10.09,2.67H81.56a14.8,14.8,0,0,0,11-4.54,15.13,15.13,0,0,0,4.47-11V54.33H108.8V76.52A11.42,11.42,0,0,0,112.4,85a11.75,11.75,0,0,0,8.5,3.53h6.77a1.27,1.27,0,0,1,1.44,1.44v9.65a1.27,1.27,0,0,1-1.44,1.44H120.9a20,20,0,0,1-18.59-11.52,23.33,23.33,0,0,1-8.57,8.43A24.08,24.08,0,0,1,81.56,101H31.85a31,31,0,0,1-16-4.32,31.94,31.94,0,0,1-11.6-11.6A31.29,31.29,0,0,1,0,69V54.33ZM38.19,41.65H50.87V54.33H38.19Zm20.17,0H71V54.33H58.36Z"/><path class="cls-1" d="M127.67,88.48h31.42a13.87,13.87,0,0,0,10.08-4.11,13.66,13.66,0,0,0,4.18-10.16q0-7.92-7.64-12.53L131.42,39.05v-9.8L159.09,0l8.06,7.64L143.23,32.71,173.5,52.6a26.25,26.25,0,0,1,8.64,9.29,25.53,25.53,0,0,1,3.17,12.61,25.88,25.88,0,0,1-3.53,13.26,26.77,26.77,0,0,1-9.58,9.65,25.22,25.22,0,0,1-13.11,3.6H127.67a1.27,1.27,0,0,1-1.44-1.44V89.92A1.27,1.27,0,0,1,127.67,88.48Z"/><path class="cls-1" d="M192.66,119.6a21.7,21.7,0,0,0,7-8.14Q202,106.63,202,98.28V54.33h11.81v44q0,10.65-3.17,17.58a30.94,30.94,0,0,1-9.79,11.89q-6.63,5-19,11l-4.46-9.94A168.46,168.46,0,0,0,192.66,119.6Z"/><path class="cls-1" d="M243.24,97.77A24.25,24.25,0,0,1,234.52,89a23.66,23.66,0,0,1-3.24-12.17V6.05H243.1v70a12.07,12.07,0,0,0,3.53,8.79,11.55,11.55,0,0,0,8.57,3.6h6.48a1.28,1.28,0,0,1,1.45,1.44v9.65a1.28,1.28,0,0,1-1.45,1.44h-6.34A23.31,23.31,0,0,1,243.24,97.77Z"/><path class="cls-1" d="M323.07,49.57a27.14,27.14,0,0,1,10.23,9.8,26.19,26.19,0,0,1,3.75,13.83A27.95,27.95,0,0,1,309,101.3a26.24,26.24,0,0,1-21.18-10.37,21.91,21.91,0,0,1-7.57,7.35A20.37,20.37,0,0,1,269.75,101h-8.07a1.27,1.27,0,0,1-1.44-1.44V89.92a1.28,1.28,0,0,1,1.44-1.44h8.07A11.7,11.7,0,0,0,278.33,85a11.54,11.54,0,0,0,3.53-8.43V57.93h-8.5V46H309A28.6,28.6,0,0,1,323.07,49.57ZM320,84.23a15,15,0,0,0,4.54-11A14.57,14.57,0,0,0,320,62.4a15.11,15.11,0,0,0-11-4.47H293.53V73.2a15.14,15.14,0,0,0,4.47,11A14.78,14.78,0,0,0,309,88.77,15,15,0,0,0,320,84.23Z"/><path class="cls-1" d="M382.59,88.48a12.05,12.05,0,0,0,12.1-12.11v-67h11.82V77a23.33,23.33,0,0,1-3.25,12,24.23,24.23,0,0,1-8.71,8.79A23.37,23.37,0,0,1,382.44,101H348.72V88.48ZM350.31,14.7l11.38-3,16.57,67.59-11.38,3Z"/><path class="cls-1" d="M436.77,97.77A24.18,24.18,0,0,1,428.05,89a23.66,23.66,0,0,1-3.24-12.17V6.05h11.81v70a12.11,12.11,0,0,0,3.53,8.79,11.57,11.57,0,0,0,8.58,3.6h6.48a1.27,1.27,0,0,1,1.44,1.44v9.65a1.27,1.27,0,0,1-1.44,1.44h-6.34A23.31,23.31,0,0,1,436.77,97.77Z"/><path class="cls-1" d="M453.77,99.57V89.92a1.27,1.27,0,0,1,1.44-1.44h25.22a1.27,1.27,0,0,1,1.44,1.44v9.65a1.27,1.27,0,0,1-1.44,1.44H455.21A1.27,1.27,0,0,1,453.77,99.57Z"/><path class="cls-1" d="M479,99.57V89.92a1.27,1.27,0,0,1,1.44-1.44h25.22a1.28,1.28,0,0,1,1.44,1.44v9.65a1.27,1.27,0,0,1-1.44,1.44H480.43A1.27,1.27,0,0,1,479,99.57Z"/><path class="cls-1" d="M504.2,99.57V89.92a1.27,1.27,0,0,1,1.44-1.44h25.22a1.27,1.27,0,0,1,1.44,1.44v9.65a1.27,1.27,0,0,1-1.44,1.44H505.64A1.27,1.27,0,0,1,504.2,99.57Z"/><path class="cls-1" d="M530.86,88.48h31.41a13.87,13.87,0,0,0,10.09-4.11,13.66,13.66,0,0,0,4.18-10.16q0-7.92-7.64-12.53L534.61,39.05v-9.8L562.27,0l8.07,7.64L546.42,32.71,576.68,52.6a26.28,26.28,0,0,1,8.65,9.29A25.53,25.53,0,0,1,588.5,74.5,25.88,25.88,0,0,1,585,87.76a26.85,26.85,0,0,1-9.58,9.65,25.23,25.23,0,0,1-13.12,3.6H530.86a1.27,1.27,0,0,1-1.44-1.44V89.92A1.27,1.27,0,0,1,530.86,88.48Z"/><path class="cls-2" d="M10.18,193.13a8.73,8.73,0,0,1-4.33-7.61v-8.24H8.42v8.12a6.06,6.06,0,0,0,.83,3.11,6.14,6.14,0,0,0,2.24,2.23,5.93,5.93,0,0,0,3.1.83h8.83a4,4,0,0,0,3.17-6.44,4.12,4.12,0,0,0-2.26-1.47l-9.4-2.11v-4a6.85,6.85,0,0,1,1-3.58,7.29,7.29,0,0,1,2.65-2.61,7.18,7.18,0,0,1,3.67-1h6.05v2.53H22.13a4.68,4.68,0,0,0-4.64,4.64v1.91l7.71,1.74a6.67,6.67,0,0,1,4,9.77,6.66,6.66,0,0,1-2.43,2.43,6.59,6.59,0,0,1-3.35.89H14.59A8.62,8.62,0,0,1,10.18,193.13Z"/><path class="cls-2" d="M45.66,182.67v1.9c0,.28-.13.42-.41.42h-2a5.45,5.45,0,0,1-4-1.58v1.08a18.28,18.28,0,0,1-.49,4.7A8,8,0,0,1,37,192.44a18.81,18.81,0,0,1-3.91,3.11l-1.41-2A16.16,16.16,0,0,0,35,191a6,6,0,0,0,1.38-2.59,17.22,17.22,0,0,0,.34-3.83v-12.3h2.56v6.09a3.77,3.77,0,0,0,1.18,2.77,3.9,3.9,0,0,0,2.84,1.16h2C45.53,182.25,45.66,182.39,45.66,182.67Z"/><path class="cls-2" d="M44.84,184.57v-1.9c0-.28.13-.42.41-.42h2.57a3.86,3.86,0,0,0,2.86-1.18,4,4,0,0,0,1.16-2.88V170.9H54.4v7.42a6.49,6.49,0,0,1-.89,3.35,6.56,6.56,0,0,1-2.4,2.42,6.4,6.4,0,0,1-3.33.9H45.25C45,185,44.84,184.85,44.84,184.57Zm1.07-20.79H49v3.1H45.91Zm5.26,0h3.11v3.1H51.17Z"/><path class="cls-2" d="M77.89,182.67v1.9a.37.37,0,0,1-.41.42H74.87a8.19,8.19,0,0,1-1.47,4.49,10.73,10.73,0,0,1-3.4,2.94q-2.09,1.19-6.44,3.13l-.83-2.28q4.07-1.78,6-2.8a7.82,7.82,0,0,0,2.77-2.27,5.5,5.5,0,0,0,.89-3.21h-5a7.85,7.85,0,0,1-3.89-1,7.45,7.45,0,0,1-3.86-6.59,7.73,7.73,0,0,1,7.75-7.7,7.2,7.2,0,0,1,3.83,1,7.62,7.62,0,0,1,2.74,2.81,7.71,7.71,0,0,1,1,3.85v4.85h2.57A.37.37,0,0,1,77.89,182.67Zm-5.55-5.31a5,5,0,1,0-8.55,3.57,4.89,4.89,0,0,0,3.54,1.45h5Z"/><path class="cls-2" d="M77.48,182.25h2.28a3.89,3.89,0,0,0,2.81-1.16,3.72,3.72,0,0,0,1.2-2.77v-6.09h2.57v6.09a3.79,3.79,0,0,0,1.16,2.77,3.83,3.83,0,0,0,2.82,1.16H92.6a.37.37,0,0,1,.41.42v1.9a.37.37,0,0,1-.41.42H90.32a5.64,5.64,0,0,1-3.13-.9A6.15,6.15,0,0,1,85,181.71a5.89,5.89,0,0,1-2.12,2.38,5.58,5.58,0,0,1-3.14.9H77.48a.37.37,0,0,1-.42-.42v-1.9A.37.37,0,0,1,77.48,182.25ZM80.79,189H83.9v3.11H80.79Zm5.26,0h3.11v3.11H86.05Z"/><path class="cls-2" d="M92.6,182.25h2.82a3.83,3.83,0,0,0,2.79-1.16,3.74,3.74,0,0,0,1.18-2.77v-6.09H102v6.09a3.74,3.74,0,0,0,1.18,2.77,3.88,3.88,0,0,0,2.84,1.16h2.77a.37.37,0,0,1,.42.42v1.9a.37.37,0,0,1-.42.42H106a5.68,5.68,0,0,1-3.17-.9,5.77,5.77,0,0,1-2.13-2.38,5.86,5.86,0,0,1-2.14,2.38,5.59,5.59,0,0,1-3.12.9H92.6a.37.37,0,0,1-.42-.42v-1.9A.37.37,0,0,1,92.6,182.25ZM96.41,189h3.11v3.11H96.41ZM99,194.35h3.11v3.06H99Zm2.69-5.35h3.07v3.11h-3.07Z"/><path class="cls-2" d="M126.36,170.78a7.42,7.42,0,0,1,2.82,2.71,7.28,7.28,0,0,1,1,3.83,7.72,7.72,0,0,1-7.74,7.75,7.36,7.36,0,0,1-3.55-.89,7.51,7.51,0,0,1-2.67-2.43,6.06,6.06,0,0,1-2.17,2.37A5.79,5.79,0,0,1,111,185h-2.2a.37.37,0,0,1-.41-.42v-1.9a.37.37,0,0,1,.41-.42H111a3.84,3.84,0,0,0,2.8-1.16,3.77,3.77,0,0,0,1.18-2.77v-6h-2.41v-2.57h10A7.8,7.8,0,0,1,126.36,170.78ZM126,180.86a4.83,4.83,0,0,0,1.47-3.54A4.77,4.77,0,0,0,126,173.8a4.85,4.85,0,0,0-3.54-1.45h-5v5a4.89,4.89,0,0,0,1.45,3.54,4.77,4.77,0,0,0,3.53,1.47A4.83,4.83,0,0,0,126,180.86Z"/><path class="cls-2" d="M139,184.09a6.66,6.66,0,0,1-2.41-2.42,6.59,6.59,0,0,1-.89-3.35V157.85h2.57v20.34a4,4,0,0,0,1.16,2.88,3.84,3.84,0,0,0,2.86,1.18H144a.37.37,0,0,1,.41.42v1.9a.37.37,0,0,1-.41.42h-1.66A6.35,6.35,0,0,1,139,184.09Z"/><path class="cls-2" d="M144,182.25H153a4.49,4.49,0,0,0,4.52-4.56,4.41,4.41,0,0,0-2.4-4L145,167.09v-2.28l7.87-8.28,1.78,1.61-7.16,7.54,9.32,6.09a7.26,7.26,0,0,1,2.4,2.53,6.92,6.92,0,0,1,.87,3.48,7.21,7.21,0,0,1-3.54,6.23,6.89,6.89,0,0,1-3.59,1H144a.37.37,0,0,1-.42-.42v-1.9A.37.37,0,0,1,144,182.25Z"/><path class="cls-2" d="M178.91,183.8a8.69,8.69,0,0,1-4.33-7.6v-4h2.57v3.85a6,6,0,0,0,.83,3.11,6.19,6.19,0,0,0,2.23,2.23,6,6,0,0,0,3.11.83H198a4.75,4.75,0,0,0,3.52-1.47,4.86,4.86,0,0,0,1.46-3.54v-5h2.56v5a7.84,7.84,0,0,1-1,3.89,7.49,7.49,0,0,1-2.71,2.82,7.32,7.32,0,0,1-3.84,1H183.32A8.53,8.53,0,0,1,178.91,183.8Zm7-14.68H189v3.11h-3.11Zm5.26,0h3.11v3.11h-3.11Z"/><path class="cls-2" d="M211,157.85h2.57V185H211Z"/><path class="cls-2" d="M229.18,182.67v1.9a.37.37,0,0,1-.42.42h-1.94a5.45,5.45,0,0,1-4-1.58v1.08a11.35,11.35,0,0,1-.91,4.87,8.64,8.64,0,0,1-2.74,3.21,36.11,36.11,0,0,1-5.26,3l-1-2.2a49.26,49.26,0,0,0,4.47-2.59,6.29,6.29,0,0,0,2.11-2.36,8.37,8.37,0,0,0,.75-3.87v-12.3h2.57v6.09a3.74,3.74,0,0,0,1.18,2.77,3.88,3.88,0,0,0,2.84,1.16h1.94A.37.37,0,0,1,229.18,182.67Zm-6.13-17.57v3.11h-3.11V165.1Z"/><path class="cls-2" d="M228.76,182.25H231a3.9,3.9,0,0,0,2.82-1.16,3.72,3.72,0,0,0,1.2-2.77v-6.09h2.57v6.09a3.76,3.76,0,0,0,1.16,2.77,3.8,3.8,0,0,0,2.81,1.16h2.28a.37.37,0,0,1,.42.42v1.9a.37.37,0,0,1-.42.42H241.6a5.59,5.59,0,0,1-3.12-.9,6.18,6.18,0,0,1-2.18-2.38,5.93,5.93,0,0,1-2.11,2.38,5.59,5.59,0,0,1-3.15.9h-2.28a.37.37,0,0,1-.41-.42v-1.9A.37.37,0,0,1,228.76,182.25Zm3.32,6.79h3.1v3.11h-3.1Zm5.26,0h3.1v3.11h-3.1Z"/><path class="cls-2" d="M267.33,182.67v1.9a.37.37,0,0,1-.42.42h-1.82a4.65,4.65,0,0,0-3.48,1.45A4.89,4.89,0,0,0,260.2,190v1.86h3.23v2.57h-9.77a6.77,6.77,0,0,1-6.84-6.79V185h-2.94a.37.37,0,0,1-.41-.42v-1.9a.37.37,0,0,1,.41-.42h2.94v-4.93a7.77,7.77,0,0,1,1-3.89,7.42,7.42,0,0,1,2.71-2.82,7.28,7.28,0,0,1,3.83-1,7.63,7.63,0,0,1,3.9,1,7.81,7.81,0,0,1,2.83,2.82,7.43,7.43,0,0,1,1.06,3.89,7.22,7.22,0,0,1-1.06,3.85,7.94,7.94,0,0,1-2.83,2.78,7.64,7.64,0,0,1-3.9,1h-5v2.65a4.23,4.23,0,0,0,4.23,4.22h4.18V190a8,8,0,0,1,1-3.9,7.38,7.38,0,0,1,2.68-2.81,7.08,7.08,0,0,1,3.77-1h1.69A.37.37,0,0,1,267.33,182.67Zm-18-.42h5a5,5,0,0,0,3.59-1.43,4.69,4.69,0,0,0,1.47-3.5,4.81,4.81,0,0,0-1.49-3.54,4.93,4.93,0,0,0-3.57-1.47,5,5,0,0,0-5,5Z"/><path class="cls-2" d="M266.5,184.57v-1.9a.37.37,0,0,1,.41-.42h7.25a10.53,10.53,0,0,0,3.61-.62,8.58,8.58,0,0,0,2.94-1.78l5.59-5.14L278.51,171a5.33,5.33,0,0,0-1.9-.49,3.65,3.65,0,0,0-1.58.37,4.47,4.47,0,0,0-1.32.95L271,175l-1.82-1.57,2.74-3.32a6.39,6.39,0,0,1,2.09-1.57,6.07,6.07,0,0,1,2.67-.58,4.5,4.5,0,0,1,1.41.19,6.86,6.86,0,0,1,1,.37l.52.23,9,4.22a1.74,1.74,0,0,0,.79.17h3.1v2.53h-3.68l-2.16,2v.67a3.77,3.77,0,0,0,1.18,2.77,3.9,3.9,0,0,0,2.84,1.16h3.94a.37.37,0,0,1,.41.42v1.9a.37.37,0,0,1-.41.42h-3.94a5.8,5.8,0,0,1-4-1.54,6.27,6.27,0,0,1-2-3.89l-2.44,2.28a12.39,12.39,0,0,1-3.83,2.32,12.92,12.92,0,0,1-4.62.83h-6.8A.37.37,0,0,1,266.5,184.57Zm9.24,4.35h3.11V192h-3.11Z"/><path class="cls-2" d="M294.17,184.57v-1.9a.37.37,0,0,1,.42-.42h2.57a3.82,3.82,0,0,0,2.85-1.18,3.94,3.94,0,0,0,1.16-2.88V170.9h2.57v7.42a6.67,6.67,0,0,1-3.29,5.77,6.41,6.41,0,0,1-3.34.9h-2.52A.37.37,0,0,1,294.17,184.57Zm1.08-20.79h3.11v3.1h-3.11Zm5.26,0h3.11v3.1h-3.11Z"/><path class="cls-2" d="M322.57,193.13a8.73,8.73,0,0,1-4.33-7.61v-8.24h2.57v8.12a6,6,0,0,0,.83,3.11,6.14,6.14,0,0,0,2.24,2.23,5.9,5.9,0,0,0,3.1.83h8.83a3.86,3.86,0,0,0,2.87-1.16,3.91,3.91,0,0,0,1.14-2.86,3.84,3.84,0,0,0-.85-2.42,4.06,4.06,0,0,0-2.25-1.47l-9.41-2.11v-4a6.86,6.86,0,0,1,1-3.58,7.29,7.29,0,0,1,2.65-2.61,7.17,7.17,0,0,1,3.66-1h6v2.53h-6.13a4.68,4.68,0,0,0-4.64,4.64v1.91l7.71,1.74a6.67,6.67,0,0,1,4,9.77,6.74,6.74,0,0,1-2.43,2.43,6.59,6.59,0,0,1-3.35.89H327A8.62,8.62,0,0,1,322.57,193.13Z"/><path class="cls-2" d="M348.23,157.85h2.57V185h-2.57Z"/><path class="cls-2" d="M387.17,182.67v1.9a.37.37,0,0,1-.41.42h-1.95a5.88,5.88,0,0,1-3.5-1.08,6,6,0,0,1-2.17-2.9,7.55,7.55,0,0,1-2.55,2,7.33,7.33,0,0,1-3.3.74,7.62,7.62,0,0,1-3.89-1,7.83,7.83,0,0,1-2.84-2.82,7.52,7.52,0,0,1-1.05-3.89,7.12,7.12,0,0,1,1.05-3.79,7.84,7.84,0,0,1,6.73-3.75h5v-2.24h2.52v12.06a3.75,3.75,0,0,0,1.19,2.77,3.8,3.8,0,0,0,2.79,1.16h1.95A.37.37,0,0,1,387.17,182.67Zm-8.86-11.6h-5a4.72,4.72,0,0,0-2.5.68,5.2,5.2,0,0,0-1.82,1.82,4.68,4.68,0,0,0-.69,2.47,5,5,0,1,0,10,0Z"/><path class="cls-2" d="M386.34,184.57v-1.9a.37.37,0,0,1,.42-.42h9.77a3.86,3.86,0,0,0,2.84-1.16,3.78,3.78,0,0,0,1.18-2.82v-1h-4.26a7,7,0,0,1-3.52-.91,6.9,6.9,0,0,1-2.57-2.49,6.56,6.56,0,0,1-1-3.48,6.77,6.77,0,0,1,1-3.52,7.19,7.19,0,0,1,2.57-2.57,6.83,6.83,0,0,1,3.52-.95,6.54,6.54,0,0,1,3.46.95,7.14,7.14,0,0,1,2.46,2.57,7,7,0,0,1,.91,3.52v8a6.67,6.67,0,0,1-3.29,5.73,6.41,6.41,0,0,1-3.34.9h-9.73A.37.37,0,0,1,386.34,184.57Zm14.34-14.21a4.33,4.33,0,0,0-1.29-3.19,4.55,4.55,0,0,0-6.33,0,4.48,4.48,0,0,0,3.18,7.67h4.44Zm-5.93-14h3.11v3.11h-3.11Z"/><path class="cls-2" d="M417.29,182.67v1.9a.37.37,0,0,1-.41.42h-1.95a5.45,5.45,0,0,1-4-1.58v1.08a11.2,11.2,0,0,1-.91,4.87,8.64,8.64,0,0,1-2.74,3.21,35.57,35.57,0,0,1-5.26,3l-1-2.2a49.26,49.26,0,0,0,4.47-2.59,6.4,6.4,0,0,0,2.12-2.36,8.51,8.51,0,0,0,.74-3.87v-12.3h2.57v6.09a3.74,3.74,0,0,0,1.18,2.77,3.88,3.88,0,0,0,2.84,1.16h1.95A.37.37,0,0,1,417.29,182.67Z"/><path class="cls-2" d="M416.46,184.57v-1.9a.37.37,0,0,1,.41-.42h7.25a10.53,10.53,0,0,0,3.61-.62,8.58,8.58,0,0,0,2.94-1.78l5.59-5.14L428.47,171a5.33,5.33,0,0,0-1.9-.49,3.65,3.65,0,0,0-1.58.37,4.47,4.47,0,0,0-1.32.95L420.93,175l-1.82-1.57,2.74-3.32a6.39,6.39,0,0,1,2.09-1.57,6.07,6.07,0,0,1,2.67-.58,4.5,4.5,0,0,1,1.41.19,6.86,6.86,0,0,1,1,.37l.52.23,9,4.22a1.74,1.74,0,0,0,.79.17h3.1v2.53h-3.6l-6.71,6.17a12.39,12.39,0,0,1-3.83,2.32,12.92,12.92,0,0,1-4.62.83h-6.8A.37.37,0,0,1,416.46,184.57Z"/><path class="cls-2" d="M457.45,180.35a7.46,7.46,0,0,1-.56-2.82,7.7,7.7,0,0,1,.6-3,7.84,7.84,0,0,1,1.72-2.57l3.56-3.52-1.69-1.7,1.82-1.82,7,7a7.89,7.89,0,0,1,2.32,5.55,7.46,7.46,0,0,1-.56,2.82,7.34,7.34,0,0,1-1.64,2.44,7.12,7.12,0,0,1-2.5,1.7,7.87,7.87,0,0,1-5.93,0,7.56,7.56,0,0,1-2.54-1.7A7.34,7.34,0,0,1,457.45,180.35Zm7.15,2a4.87,4.87,0,0,0,1.86-.38,5,5,0,0,0,1.66-1.12,4.71,4.71,0,0,0,1.45-3.52,5.09,5.09,0,0,0-.38-1.92,4.71,4.71,0,0,0-1.07-1.64l-3.56-3.52L461,173.8a4.87,4.87,0,0,0-1.07,1.62,4.92,4.92,0,0,0-.38,1.9,5,5,0,0,0,1.45,3.56A4.88,4.88,0,0,0,464.6,182.38Z"/><path class="cls-2" d="M481,184.09a6.56,6.56,0,0,1-2.4-2.42,6.49,6.49,0,0,1-.89-3.35V157.85h2.57v20.34a3.94,3.94,0,0,0,1.16,2.88,3.82,3.82,0,0,0,2.85,1.18H486a.37.37,0,0,1,.42.42v1.9a.37.37,0,0,1-.42.42h-1.65A6.41,6.41,0,0,1,481,184.09Z"/><path class="cls-2" d="M512.77,182.67v1.9c0,.28-.13.42-.41.42h-1.95a5.87,5.87,0,0,1-3.1-.83,5.68,5.68,0,0,1-2.12-2.28,7.47,7.47,0,0,1-2.54,2.26,6.94,6.94,0,0,1-3.34.85H486a.37.37,0,0,1-.41-.42v-1.9a.37.37,0,0,1,.41-.42h13.3a4.49,4.49,0,0,0,4.52-4.56,4.42,4.42,0,0,0-2.41-4l-10.06-6.59v-2.28l7.87-8.28,1.74,1.61-7.13,7.54,9.32,6.09a7.2,7.2,0,0,1,2.41,2.53,6.92,6.92,0,0,1,.87,3.48v.54a3.74,3.74,0,0,0,1.18,2.77,3.82,3.82,0,0,0,2.79,1.16h1.95C512.64,182.25,512.77,182.39,512.77,182.67ZM496.91,156l-7.29,7.7-1.29-1.37,7.29-7.7Z"/><path class="cls-2" d="M541,170.9V185h-5.56a6,6,0,0,1-3.12-.83,5.9,5.9,0,0,1-2.18-2.28,6,6,0,0,1-8.43,2.32,6.1,6.1,0,0,1-2.17-2.36,6.2,6.2,0,0,1-2.16,2.3,5.79,5.79,0,0,1-3.1.85h-1.95a.37.37,0,0,1-.42-.42v-1.9a.37.37,0,0,1,.42-.42h1.95a3.86,3.86,0,0,0,2.83-1.16,3.74,3.74,0,0,0,1.18-2.77v-6.09h2.57v6.17a3.76,3.76,0,0,0,1.18,2.77,3.9,3.9,0,0,0,2.84,1.16,3.84,3.84,0,0,0,2.8-1.16,3.76,3.76,0,0,0,1.18-2.77v-6.17h2.57v6.09a3.74,3.74,0,0,0,1.18,2.77,3.86,3.86,0,0,0,2.83,1.16h3V170.9Zm-11.93-5.3v3.11H526V165.6Zm2.6-5.35v3.11h-3.06v-3.11Zm-.45,8.46V165.6h3.11v3.11Z"/><path class="cls-2" d="M555.3,190.47a7.82,7.82,0,0,0,2.77-2.27A5.43,5.43,0,0,0,559,185h-5a7.85,7.85,0,0,1-3.89-1,7.45,7.45,0,0,1-3.86-6.59,7.73,7.73,0,0,1,7.75-7.7,7.17,7.17,0,0,1,3.83,1,7.62,7.62,0,0,1,2.74,2.81,7.71,7.71,0,0,1,1,3.85v6.72a8.94,8.94,0,0,1-1.26,5,10.21,10.21,0,0,1-3.4,3.15c-1.42.82-3.65,1.92-6.69,3.27l-.83-2.28Q553.42,191.49,555.3,190.47ZM559,177.36a5,5,0,1,0-8.55,3.57,4.89,4.89,0,0,0,3.54,1.45h5Z"/><path class="cls-2" d="M577.23,182.67v1.9a.37.37,0,0,1-.41.42h-2a5.45,5.45,0,0,1-4-1.58v1.08a17.79,17.79,0,0,1-.5,4.7,8,8,0,0,1-1.8,3.25,19.09,19.09,0,0,1-3.91,3.11l-1.41-2a15.78,15.78,0,0,0,3.33-2.65,5.93,5.93,0,0,0,1.39-2.59,17.32,17.32,0,0,0,.33-3.83v-12.3h2.57v6.09a3.77,3.77,0,0,0,1.18,2.77,3.9,3.9,0,0,0,2.84,1.16h2A.37.37,0,0,1,577.23,182.67Z"/><path class="cls-2" d="M576.4,184.57v-1.9a.37.37,0,0,1,.42-.42h9.77a3.88,3.88,0,0,0,2.84-1.16,3.78,3.78,0,0,0,1.18-2.82v-1h-4.26a7,7,0,0,1-3.53-.91,7,7,0,0,1-2.56-2.49,6.56,6.56,0,0,1-1-3.48,6.77,6.77,0,0,1,1-3.52,7.25,7.25,0,0,1,2.56-2.57,6.87,6.87,0,0,1,3.53-.95,6.51,6.51,0,0,1,3.45.95,7.1,7.1,0,0,1,3.38,6.09v8a6.52,6.52,0,0,1-.89,3.31,6.71,6.71,0,0,1-2.4,2.42,6.41,6.41,0,0,1-3.34.9h-9.73A.37.37,0,0,1,576.4,184.57Zm14.34-14.21a4.33,4.33,0,0,0-1.29-3.19,4.28,4.28,0,0,0-3.15-1.28,4.48,4.48,0,1,0,0,9h4.44Zm-5.93-14h3.11v3.11h-3.11Z"/></g></g></svg>